<svg preserveAspectRatio="none" overflow="visible" style="display: block;" width="24" height="24" viewBox="0 0 24 24" fill="none" xmlns="http://www.w3.org/2000/svg">
<g id="Data Sovereignty">
<path id="Vector" d="M12 10C15.866 10 19 8.65685 19 7C19 5.34315 15.866 4 12 4C8.13401 4 5 5.34315 5 7C5 8.65685 8.13401 10 12 10Z" stroke="#D4A017" stroke-width="2"/>
<path id="Vector_2" d="M5 7V12C5 13.7 8.1 15 12 15C15.9 15 19 13.7 19 12V7" stroke="#D4A017" stroke-width="2"/>
<path id="Vector_3" d="M5 12V17C5 18.7 8.1 20 12 20C15.9 20 19 18.7 19 17V12" stroke="#D4A017" stroke-width="2"/>
<path id="Vector_4" d="M18 20C19.1046 20 20 19.1046 20 18C20 16.8954 19.1046 16 18 16C16.8954 16 16 16.8954 16 18C16 19.1046 16.8954 20 18 20Z" fill="#D4A017"/>
<path id="Vector_5" d="M18 16V14" stroke="#D4A017" stroke-width="1.5" stroke-linecap="round"/>
</g>
</svg>
